<?xml version="1.0" standalone="no"?>
<!DOCTYPE svg PUBLIC "-//W3C//DTD SVG 20010904//EN"
 "http://www.w3.org/TR/2001/REC-SVG-20010904/DTD/svg10.dtd">
<svg version="1.0" xmlns="http://www.w3.org/2000/svg"
 width="512.000000pt" height="512.000000pt" viewBox="0 0 512.000000 512.000000"
 preserveAspectRatio="xMidYMid meet">

<g transform="translate(0.000000,512.000000) scale(0.100000,-0.100000)"
fill="#000000" stroke="none">
<path d="M0 2560 l0 -2560 2560 0 2560 0 0 2560 0 2560 -2560 0 -2560 0 0
-2560z m3980 1896 c25 -11 25 -13 24 -128 -2 -142 -7 -166 -38 -174 -46 -11
-65 10 -68 77 l-3 61 -255 -206 c-142 -115 -263 -206 -275 -206 -11 0 -150 30
-308 66 l-288 68 -277 -277 c-153 -152 -284 -277 -292 -277 -22 0 -50 31 -50
55 0 16 85 109 286 314 235 239 291 291 312 291 15 -1 157 -32 315 -69 l289
-68 236 191 236 191 -50 5 c-28 3 -59 11 -68 19 -20 17 -21 49 0 72 15 16 29
18 133 12 64 -3 127 -11 141 -17z m164 -548 c14 -20 16 -100 16 -673 0 -573
-2 -653 -16 -673 -15 -21 -21 -22 -183 -22 -116 0 -171 4 -179 12 -17 17 -17
1349 0 1366 8 8 63 12 179 12 162 0 168 -1 183 -22z m-594 -278 c19 -19 20
-33 20 -533 0 -448 -2 -515 -16 -535 -15 -21 -21 -22 -183 -22 -116 0 -171 4
-179 12 -9 9 -12 143 -12 539 l0 528 22 15 c18 13 53 16 175 16 140 0 155 -2
173 -20z m-586 -246 c14 -13 16 -65 16 -414 0 -349 -2 -401 -16 -414 -23 -24
-335 -24 -358 0 -14 13 -16 65 -16 411 0 355 2 398 17 415 14 16 34 18 179 18
134 0 165 -3 178 -16z m-590 -200 c14 -13 16 -56 16 -318 0 -221 -3 -305 -12
-314 -8 -8 -62 -12 -177 -12 -139 0 -167 3 -183 17 -17 15 -18 38 -18 307 0
248 2 295 16 314 15 21 21 22 179 22 135 0 166 -3 179 -16z m-1947 -553 c64
-28 137 -104 154 -160 12 -39 13 -41 48 -36 117 17 491 57 580 62 120 6 309
-9 456 -38 154 -31 299 -84 973 -359 672 -274 681 -279 724 -369 l23 -49 650
195 c580 174 658 195 725 196 63 1 83 -3 125 -25 194 -101 229 -346 69 -487
-39 -34 -227 -129 -886 -447 -460 -222 -870 -415 -910 -428 -150 -50 -308 -56
-468 -17 -41 10 -352 120 -690 246 -338 126 -664 242 -725 259 -108 29 -115
30 -325 29 -137 0 -240 -6 -284 -14 -66 -14 -68 -15 -81 -52 -31 -91 -113
-165 -205 -186 -25 -6 -98 -11 -162 -11 -105 0 -120 2 -138 20 -20 20 -20 33
-20 838 0 850 0 840 40 856 8 3 73 4 145 2 108 -2 139 -7 182 -25z"/>
<path d="M3870 3235 l0 -595 90 0 90 0 0 595 0 595 -90 0 -90 0 0 -595z"/>
<path d="M3280 3090 l0 -450 90 0 90 0 0 450 0 450 -90 0 -90 0 0 -450z"/>
<path d="M2690 2970 l0 -330 95 0 95 0 0 330 0 330 -95 0 -95 0 0 -330z"/>
<path d="M2110 2870 l0 -230 90 0 90 0 0 230 0 230 -90 0 -90 0 0 -230z"/>
<path d="M170 1801 l0 -751 95 0 c58 0 108 5 128 14 43 17 84 67 97 116 7 26
10 242 8 642 -3 673 1 638 -75 695 -34 26 -44 28 -145 31 l-108 4 0 -751z"/>
<path d="M860 2360 c-129 -16 -241 -29 -247 -30 -10 0 -13 -112 -13 -523 l0
-524 88 13 c222 34 419 27 605 -20 51 -13 385 -132 742 -264 358 -132 674
-245 703 -251 78 -16 242 -14 325 5 92 21 146 45 602 266 209 102 560 272 780
378 220 106 415 204 434 219 48 38 71 86 71 149 0 111 -78 192 -186 192 -31 0
-262 -64 -708 -196 l-662 -196 -17 -48 c-38 -107 -146 -184 -257 -183 -42 1
-178 39 -565 158 -280 86 -520 163 -532 171 -30 19 -30 59 0 79 22 14 54 6
544 -145 286 -88 537 -160 557 -160 50 0 110 32 135 73 31 50 29 140 -3 188
-28 41 43 10 -815 358 -744 303 -772 310 -1126 316 -196 4 -246 1 -455 -25z"/>
</g>
</svg>
